<svg width="60" height="60" viewBox="0 0 60 60" fill="none" xmlns="http://www.w3.org/2000/svg">
<path d="M24.3211 43.5797C24.2297 43.943 21.9445 52.5 9.37498 52.5C8.87769 52.5 8.40078 52.3024 8.04915 51.9508C7.69752 51.5992 7.49998 51.1223 7.49998 50.625C7.49998 38.0555 16.057 35.7703 16.4203 35.6789C16.903 35.5583 17.4138 35.6344 17.8403 35.8904C18.2669 36.1465 18.5743 36.5615 18.6949 37.0441C18.8155 37.5268 18.7394 38.0376 18.4834 38.4642C18.2273 38.8907 17.8123 39.1981 17.3297 39.3187C17.1187 39.3773 12.075 40.8515 11.339 48.6609C19.1484 47.925 20.625 42.8906 20.6859 42.6562C20.8102 42.1742 21.121 41.7613 21.5497 41.5083C21.9785 41.2554 22.4902 41.1831 22.9722 41.3074C23.4543 41.4317 23.8672 41.7425 24.1202 42.1712C24.3731 42.6 24.4454 43.1117 24.3211 43.5937V43.5797ZM46.1179 27.7828L45 28.9008V42.5719C45.0028 43.0662 44.9072 43.5562 44.7189 44.0133C44.5306 44.4703 44.2533 44.8854 43.9031 45.2344L35.8594 53.2734C35.5125 53.6228 35.0998 53.9 34.6453 54.089C34.1907 54.2781 33.7032 54.3753 33.2109 54.375C32.8046 54.3749 32.401 54.3092 32.0156 54.1805C31.3539 53.9616 30.7667 53.562 30.3202 53.0269C29.8737 52.4918 29.5858 51.8425 29.489 51.1523L28.2304 42.1312L17.8687 31.7695L8.85232 30.5109C8.16125 30.414 7.51093 30.1262 6.97452 29.6798C6.43811 29.2334 6.03689 28.6463 5.816 27.9843C5.59511 27.3223 5.5633 26.6119 5.72416 25.9328C5.88502 25.2538 6.23216 24.6331 6.72654 24.1406L14.7656 16.0969C15.1145 15.7467 15.5296 15.4694 15.9867 15.281C16.4438 15.0927 16.9338 14.9972 17.4281 15H31.0992L32.2172 13.882C38.4703 7.63124 46.0031 7.36171 48.9539 7.53749C49.8681 7.59305 50.7304 7.98128 51.3781 8.62893C52.0257 9.27659 52.4139 10.1389 52.4695 11.0531C52.6406 13.9945 52.3711 21.5297 46.1203 27.7828H46.1179ZM27.3492 18.75H17.4281L9.37498 26.7984L18.082 28.0125L27.3492 18.75ZM41.25 32.6508L31.9851 41.9156L33.2039 50.625L41.25 42.5719V32.6508Z" fill="white"/>
</svg>
