<svg width="61" height="60" viewBox="0 0 61 60" fill="none" xmlns="http://www.w3.org/2000/svg">
<path d="M51.896 39.6304L30.3335 52.2046L8.771 39.6304C8.34407 39.4178 7.85219 39.3759 7.39547 39.5133C6.93874 39.6506 6.55151 39.9568 6.31258 40.3695C6.07365 40.7823 6.00098 41.2706 6.10937 41.735C6.21776 42.1994 6.49905 42.6051 6.896 42.8695L29.396 55.9945C29.6827 56.1617 30.0086 56.2497 30.3405 56.2497C30.6724 56.2497 30.9984 56.1617 31.2851 55.9945L53.7851 42.8695C54.0012 42.7472 54.1908 42.5832 54.3431 42.3871C54.4953 42.1909 54.607 41.9665 54.6718 41.7268C54.7366 41.4871 54.7531 41.2369 54.7205 40.9908C54.6878 40.7446 54.6065 40.5074 54.4814 40.2929C54.3563 40.0784 54.1899 39.8909 53.9918 39.7413C53.7936 39.5917 53.5677 39.4829 53.3272 39.4212C53.0867 39.3596 52.8363 39.3464 52.5906 39.3823C52.3449 39.4182 52.1088 39.5025 51.896 39.6304Z" fill="white"/>
<path d="M51.896 28.3804L30.3335 40.9546L8.771 28.3804C8.34407 28.1678 7.85219 28.1259 7.39547 28.2633C6.93874 28.4006 6.55151 28.7068 6.31258 29.1195C6.07365 29.5323 6.00098 30.0206 6.10937 30.485C6.21776 30.9494 6.49905 31.3551 6.896 31.6195L29.396 44.7445C29.6827 44.9117 30.0086 44.9997 30.3405 44.9997C30.6724 44.9997 30.9984 44.9117 31.2851 44.7445L53.7851 31.6195C54.0012 31.4972 54.1908 31.3332 54.3431 31.1371C54.4953 30.9409 54.607 30.7165 54.6718 30.4768C54.7366 30.2371 54.7531 29.9869 54.7205 29.7408C54.6878 29.4946 54.6065 29.2574 54.4814 29.0429C54.3563 28.8285 54.1899 28.6409 53.9918 28.4913C53.7936 28.3417 53.5677 28.2329 53.3272 28.1712C53.0867 28.1096 52.8363 28.0964 52.5906 28.1323C52.3449 28.1682 52.1088 28.2525 51.896 28.3804Z" fill="white"/>
<path d="M6.89597 20.3696L29.396 33.4946C29.6827 33.6618 30.0086 33.7499 30.3405 33.7499C30.6724 33.7499 30.9983 33.6618 31.285 33.4946L53.785 20.3696C54.0681 20.2045 54.3029 19.968 54.4661 19.6839C54.6293 19.3997 54.7152 19.0777 54.7152 18.7501C54.7152 18.4224 54.6293 18.1004 54.4661 17.8162C54.3029 17.5321 54.0681 17.2957 53.785 17.1305L31.285 4.00553C30.9983 3.83834 30.6724 3.75024 30.3405 3.75024C30.0086 3.75024 29.6827 3.83834 29.396 4.00553L6.89597 17.1305C6.61293 17.2957 6.3781 17.5321 6.2149 17.8162C6.0517 18.1004 5.96582 18.4224 5.96582 18.7501C5.96582 19.0777 6.0517 19.3997 6.2149 19.6839C6.3781 19.968 6.61293 20.2045 6.89597 20.3696Z" fill="white"/>
</svg>
