<svg width="61" height="60" viewBox="0 0 61 60" fill="none" xmlns="http://www.w3.org/2000/svg">
<path d="M54.6667 51.3727C54.8763 51.6513 55.0041 51.9828 55.0358 52.3299C55.0674 52.6771 55.0016 53.0262 54.8458 53.3381C54.69 53.6499 54.4504 53.9122 54.1538 54.0954C53.8572 54.2785 53.5154 54.3754 53.1667 54.3751H8.16675C7.81854 54.3751 7.47721 54.2781 7.181 54.095C6.8848 53.912 6.64542 53.65 6.4897 53.3386C6.33397 53.0271 6.26805 52.6785 6.29933 52.3317C6.3306 51.9849 6.45782 51.6536 6.66675 51.3751C8.32703 49.1491 10.541 47.3965 13.0886 46.2915C11.6922 45.0169 10.7137 43.35 10.2816 41.5094C9.84957 39.6688 9.98411 37.7405 10.6676 35.9778C11.3511 34.215 12.5516 32.7001 14.1115 31.6318C15.6714 30.5636 17.5179 29.9919 19.4085 29.9919C21.2992 29.9919 23.1456 30.5636 24.7056 31.6318C26.2655 32.7001 27.466 34.215 28.1495 35.9778C28.833 37.7405 28.9675 39.6688 28.5355 41.5094C28.1034 43.35 27.1249 45.0169 25.7285 46.2915C27.5665 47.0859 29.2367 48.2225 30.6503 49.6407C32.0639 48.2225 33.7342 47.0859 35.5722 46.2915C34.1758 45.0169 33.1973 43.35 32.7652 41.5094C32.3332 39.6688 32.4677 37.7405 33.1512 35.9778C33.8347 34.215 35.0352 32.7001 36.5951 31.6318C38.155 30.5636 40.0015 29.9919 41.8921 29.9919C43.7828 29.9919 45.6292 30.5636 47.1892 31.6318C48.7491 32.7001 49.9496 34.215 50.6331 35.9778C51.3166 37.7405 51.4511 39.6688 51.0191 41.5094C50.587 43.35 49.6085 45.0169 48.2121 46.2915C50.7715 47.3907 52.9973 49.1429 54.6667 51.3727ZM7.04175 29.6251C7.23873 29.7728 7.46288 29.8803 7.70141 29.9414C7.93993 30.0025 8.18816 30.0161 8.43191 29.9812C8.67567 29.9464 8.91018 29.8639 9.12205 29.7385C9.33392 29.613 9.51901 29.4471 9.66675 29.2501C10.802 27.7364 12.274 26.5079 13.9663 25.6617C15.6586 24.8156 17.5247 24.3751 19.4167 24.3751C21.3088 24.3751 23.1749 24.8156 24.8672 25.6617C26.5595 26.5079 28.0315 27.7364 29.1667 29.2501C29.3414 29.4829 29.5679 29.6719 29.8282 29.8021C30.0886 29.9323 30.3757 30.0001 30.6667 30.0001C30.9578 30.0001 31.2449 29.9323 31.5053 29.8021C31.7656 29.6719 31.9921 29.4829 32.1667 29.2501C33.302 27.7364 34.774 26.5079 36.4663 25.6617C38.1586 24.8156 40.0247 24.3751 41.9167 24.3751C43.8088 24.3751 45.6749 24.8156 47.3672 25.6617C49.0595 26.5079 50.5315 27.7364 51.6667 29.2501C51.8146 29.4471 51.9999 29.613 52.2119 29.7384C52.4239 29.8638 52.6586 29.9462 52.9024 29.9809C53.1463 30.0156 53.3946 30.0019 53.6332 29.9407C53.8718 29.8794 54.0959 29.7718 54.2929 29.6239C54.4899 29.476 54.6558 29.2908 54.7812 29.0788C54.9066 28.8667 54.989 28.6321 55.0237 28.3882C55.0584 28.1444 55.0448 27.8961 54.9835 27.6575C54.9223 27.4189 54.8146 27.1947 54.6667 26.9977C53.0064 24.7724 50.7924 23.0206 48.2449 21.9165C49.6413 20.642 50.6198 18.975 51.0519 17.1344C51.4839 15.2938 51.3494 13.3655 50.6659 11.6028C49.9824 9.83999 48.7819 8.32506 47.222 7.25682C45.6621 6.18858 43.8156 5.61694 41.925 5.61694C40.0343 5.61694 38.1878 6.18858 36.6279 7.25682C35.068 8.32506 33.8675 9.83999 33.184 11.6028C32.5005 13.3655 32.366 15.2938 32.798 17.1344C33.2301 18.975 34.2086 20.642 35.605 21.9165C33.767 22.711 32.0968 23.8475 30.6832 25.2657C29.2696 23.8475 27.5993 22.711 25.7613 21.9165C27.1577 20.642 28.1362 18.975 28.5683 17.1344C29.0003 15.2938 28.8658 13.3655 28.1823 11.6028C27.4988 9.83999 26.2983 8.32506 24.7384 7.25682C23.1785 6.18858 21.332 5.61694 19.4414 5.61694C17.5507 5.61694 15.7043 6.18858 14.1443 7.25682C12.5844 8.32506 11.3839 9.83999 10.7004 11.6028C10.0169 13.3655 9.88238 15.2938 10.3144 17.1344C10.7465 18.975 11.725 20.642 13.1214 21.9165C10.5619 23.0166 8.33609 24.7696 6.66675 27.0001C6.51901 27.1971 6.41152 27.4212 6.35041 27.6597C6.2893 27.8983 6.27577 28.1465 6.31059 28.3902C6.34542 28.634 6.42791 28.8685 6.55336 29.0804C6.67881 29.2922 6.84477 29.4773 7.04175 29.6251Z" fill="white"/>
</svg>
