<svg width="32" height="33" viewBox="0 0 32 33" fill="none" xmlns="http://www.w3.org/2000/svg">
<g id="ArrowRight">
<path id="Vector" d="M27.7075 17.2073L18.7075 26.2073C18.5676 26.3473 18.3894 26.4427 18.1953 26.4813C18.0012 26.52 17.8 26.5002 17.6172 26.4244C17.4344 26.3487 17.2782 26.2204 17.1683 26.0558C17.0584 25.8912 16.9998 25.6977 17 25.4998V17.4998H5C4.73478 17.4998 4.48043 17.3945 4.29289 17.2069C4.10536 17.0194 4 16.765 4 16.4998C4 16.2346 4.10536 15.9802 4.29289 15.7927C4.48043 15.6052 4.73478 15.4998 5 15.4998H17V7.49981C16.9998 7.30192 17.0584 7.10842 17.1683 6.94383C17.2782 6.77923 17.4344 6.65094 17.6172 6.57519C17.8 6.49944 18.0012 6.47963 18.1953 6.51828C18.3894 6.55693 18.5676 6.6523 18.7075 6.79231L27.7075 15.7923C27.8005 15.8852 27.8742 15.9955 27.9246 16.1169C27.9749 16.2383 28.0008 16.3684 28.0008 16.4998C28.0008 16.6312 27.9749 16.7614 27.9246 16.8828C27.8742 17.0041 27.8005 17.1144 27.7075 17.2073Z" fill="#BCF8EC"/>
</g>
</svg>
