<svg width="68" height="68" viewBox="0 0 68 68" fill="none" xmlns="http://www.w3.org/2000/svg">
<g id="icon">
<circle id="Ellipse 7" cx="34.5" cy="33.5" r="21.5" fill="#BCF8EC"/>
<path id="Vector" d="M34 6.375C28.5363 6.375 23.1953 7.99518 18.6524 11.0307C14.1095 14.0661 10.5687 18.3806 8.47783 23.4284C6.38695 28.4762 5.83989 34.0306 6.9058 39.3894C7.97172 44.7481 10.6027 49.6704 14.4662 53.5338C18.3296 57.3973 23.2519 60.0283 28.6106 61.0942C33.9694 62.1601 39.5238 61.613 44.5716 59.5222C49.6194 57.4313 53.9339 53.8905 56.9693 49.3476C60.0048 44.8047 61.625 39.4637 61.625 34C61.6173 26.6758 58.7043 19.6537 53.5253 14.4747C48.3463 9.2957 41.3242 6.38273 34 6.375ZM44.625 38.25C44.625 38.8136 44.4011 39.3541 44.0026 39.7526C43.6041 40.1511 43.0636 40.375 42.5 40.375C41.9364 40.375 41.3959 40.1511 40.9974 39.7526C40.5989 39.3541 40.375 38.8136 40.375 38.25V30.6292L27.0034 44.0034C26.806 44.2009 26.5716 44.3575 26.3137 44.4643C26.0557 44.5712 25.7792 44.6262 25.5 44.6262C25.2208 44.6262 24.9443 44.5712 24.6863 44.4643C24.4284 44.3575 24.194 44.2009 23.9966 44.0034C23.7991 43.806 23.6425 43.5716 23.5357 43.3137C23.4288 43.0557 23.3738 42.7792 23.3738 42.5C23.3738 42.2208 23.4288 41.9443 23.5357 41.6863C23.6425 41.4284 23.7991 41.194 23.9966 40.9966L37.3708 27.625H29.75C29.1864 27.625 28.6459 27.4011 28.2474 27.0026C27.8489 26.6041 27.625 26.0636 27.625 25.5C27.625 24.9364 27.8489 24.3959 28.2474 23.9974C28.6459 23.5989 29.1864 23.375 29.75 23.375H42.5C43.0636 23.375 43.6041 23.5989 44.0026 23.9974C44.4011 24.3959 44.625 24.9364 44.625 25.5V38.25Z" fill="#394248"/>
</g>
</svg>
