<svg width="32" height="32" viewBox="0 0 32 32" fill="none" xmlns="http://www.w3.org/2000/svg">
<g id="ArrowDownRight">
<path id="Vector" d="M25 10.9999V23.9999C25 24.2652 24.8947 24.5195 24.7071 24.7071C24.5196 24.8946 24.2652 24.9999 24 24.9999H11C10.8021 25.0001 10.6086 24.9415 10.444 24.8317C10.2794 24.7218 10.1511 24.5656 10.0754 24.3827C9.99963 24.1999 9.97983 23.9987 10.0185 23.8046C10.0571 23.6106 10.1525 23.4323 10.2925 23.2924L16.0863 17.4999L7.29251 8.70745C7.10487 8.51981 6.99945 8.26531 6.99945 7.99995C6.99945 7.73458 7.10487 7.48009 7.29251 7.29245C7.48015 7.1048 7.73464 6.99939 8.00001 6.99939C8.26537 6.99939 8.51987 7.1048 8.70751 7.29245L17.5 16.0862L23.2925 10.2924C23.4324 10.1524 23.6106 10.0571 23.8047 10.0184C23.9988 9.97977 24.2 9.99957 24.3828 10.0753C24.5656 10.1511 24.7219 10.2794 24.8317 10.444C24.9416 10.6086 25.0002 10.802 25 10.9999Z" fill="#731DD8"/>
</g>
</svg>
