<svg width="68" height="69" viewBox="0 0 68 69" fill="none" xmlns="http://www.w3.org/2000/svg">
<circle cx="34.5" cy="34" r="21.5" fill="#BCF8EC"/>
<path d="M34 6.875C28.5363 6.875 23.1953 8.49518 18.6524 11.5307C14.1095 14.5661 10.5687 18.8806 8.47784 23.9284C6.38697 28.9762 5.8399 34.5306 6.90582 39.8894C7.97174 45.2481 10.6028 50.1704 14.4662 54.0338C18.3296 57.8973 23.2519 60.5283 28.6106 61.5942C33.9694 62.6601 39.5238 62.113 44.5716 60.0222C49.6194 57.9313 53.9339 54.3905 56.9694 49.8476C60.0048 45.3047 61.625 39.9637 61.625 34.5C61.6173 27.1758 58.7043 20.1537 53.5253 14.9747C48.3463 9.7957 41.3242 6.88273 34 6.875ZM46.1285 36.0034L37.6285 44.5034C37.2297 44.9022 36.6889 45.1262 36.125 45.1262C35.5611 45.1262 35.0203 44.9022 34.6216 44.5034C34.2228 44.1047 33.9988 43.5639 33.9988 43C33.9988 42.4361 34.2228 41.8953 34.6216 41.4966L39.4958 36.625H23.375C22.8114 36.625 22.2709 36.4011 21.8724 36.0026C21.4739 35.6041 21.25 35.0636 21.25 34.5C21.25 33.9364 21.4739 33.3959 21.8724 32.9974C22.2709 32.5989 22.8114 32.375 23.375 32.375H39.4958L34.6216 27.5034C34.2228 27.1047 33.9988 26.5639 33.9988 26C33.9988 25.4361 34.2228 24.8953 34.6216 24.4966C35.0203 24.0978 35.5611 23.8738 36.125 23.8738C36.6889 23.8738 37.2297 24.0978 37.6285 24.4966L46.1285 32.9966C46.326 33.1939 46.4828 33.4283 46.5897 33.6863C46.6966 33.9442 46.7517 34.2207 46.7517 34.5C46.7517 34.7793 46.6966 35.0558 46.5897 35.3137C46.4828 35.5717 46.326 35.8061 46.1285 36.0034Z" fill="#394248"/>
</svg>
