<svg width="68" height="69" viewBox="0 0 68 69" fill="none" xmlns="http://www.w3.org/2000/svg">
<circle cx="21.5" cy="21.5" r="21.5" transform="matrix(-1 0 0 1 55 12.5)" fill="#BCF8EC" fill-opacity="0.33"/>
<path d="M34 6.875C39.4637 6.875 44.8047 8.49518 49.3476 11.5307C53.8905 14.5661 57.4313 18.8806 59.5222 23.9284C61.613 28.9762 62.1601 34.5306 61.0942 39.8894C60.0283 45.2481 57.3972 50.1704 53.5338 54.0338C49.6704 57.8973 44.7481 60.5283 39.3894 61.5942C34.0306 62.6601 28.4762 62.113 23.4284 60.0222C18.3806 57.9313 14.0661 54.3905 11.0306 49.8476C7.99517 45.3047 6.37499 39.9637 6.37499 34.5C6.38272 27.1758 9.29569 20.1537 14.4747 14.9747C19.6537 9.7957 26.6758 6.88273 34 6.875ZM21.8715 36.0034L30.3715 44.5034C30.7703 44.9022 31.3111 45.1262 31.875 45.1262C32.4389 45.1262 32.9797 44.9022 33.3784 44.5034C33.7772 44.1047 34.0012 43.5639 34.0012 43C34.0012 42.4361 33.7772 41.8953 33.3784 41.4966L28.5042 36.625H44.625C45.1886 36.625 45.7291 36.4011 46.1276 36.0026C46.5261 35.6041 46.75 35.0636 46.75 34.5C46.75 33.9364 46.5261 33.3959 46.1276 32.9974C45.7291 32.5989 45.1886 32.375 44.625 32.375H28.5042L33.3784 27.5034C33.7772 27.1047 34.0012 26.5639 34.0012 26C34.0012 25.4361 33.7772 24.8953 33.3784 24.4966C32.9797 24.0978 32.4389 23.8738 31.875 23.8738C31.3111 23.8738 30.7703 24.0978 30.3715 24.4966L21.8715 32.9966C21.674 33.1939 21.5172 33.4283 21.4103 33.6863C21.3034 33.9442 21.2483 34.2207 21.2483 34.5C21.2483 34.7793 21.3034 35.0558 21.4103 35.3137C21.5172 35.5717 21.674 35.8061 21.8715 36.0034Z" fill="#1F2326"/>
</svg>
