<svg width="32" height="32" viewBox="0 0 32 32" fill="none" xmlns="http://www.w3.org/2000/svg">
<g id="ArrowCircleDown">
<path id="Vector" d="M16 29C18.5712 29 21.0846 28.2376 23.2224 26.8091C25.3602 25.3806 27.0265 23.3503 28.0104 20.9749C28.9944 18.5994 29.2518 15.9856 28.7502 13.4638C28.2486 10.9421 27.0105 8.62569 25.1924 6.80761C23.3743 4.98953 21.0579 3.7514 18.5362 3.24979C16.0144 2.74819 13.4005 3.00563 11.0251 3.98957C8.64967 4.97351 6.61935 6.63975 5.19089 8.77759C3.76243 10.9154 2.99999 13.4288 2.99999 16C3.00363 19.4467 4.37444 22.7512 6.81163 25.1884C9.24881 27.6256 12.5533 28.9964 16 29ZM11.2925 14.2925L15.2925 10.2925C15.3854 10.1995 15.4957 10.1258 15.6171 10.0754C15.7385 10.0251 15.8686 9.99922 16 9.99922C16.1314 9.99922 16.2615 10.0251 16.3829 10.0754C16.5043 10.1258 16.6146 10.1995 16.7075 10.2925L20.7075 14.2925C20.8951 14.4801 21.0005 14.7346 21.0005 15C21.0005 15.2654 20.8951 15.5199 20.7075 15.7075C20.5199 15.8951 20.2654 16.0006 20 16.0006C19.7346 16.0006 19.4801 15.8951 19.2925 15.7075L17 13.4138L17 21C17 21.2652 16.8946 21.5196 16.7071 21.7071C16.5196 21.8946 16.2652 22 16 22C15.7348 22 15.4804 21.8946 15.2929 21.7071C15.1053 21.5196 15 21.2652 15 21L15 13.4138L12.7075 15.7075C12.5199 15.8951 12.2654 16.0006 12 16.0006C11.7346 16.0006 11.4801 15.8951 11.2925 15.7075C11.1049 15.5199 10.9994 15.2654 10.9994 15C10.9994 14.7346 11.1049 14.4801 11.2925 14.2925Z" fill="white"/>
</g>
</svg>
