<svg width="60" height="60" viewBox="0 0 60 60" fill="none" xmlns="http://www.w3.org/2000/svg">
<g id="Service Icons">
<path id="Vector" d="M39.375 30C39.375 31.8542 38.8252 33.6667 37.795 35.2084C36.7649 36.7501 35.3007 37.9518 33.5877 38.6613C31.8746 39.3709 29.9896 39.5566 28.171 39.1948C26.3525 38.8331 24.682 37.9402 23.3709 36.6291C22.0598 35.318 21.1669 33.6475 20.8051 31.8289C20.4434 30.0104 20.6291 28.1254 21.3386 26.4123C22.0482 24.6993 23.2498 23.2351 24.7915 22.2049C26.3332 21.1748 28.1458 20.625 30 20.625C32.4864 20.625 34.871 21.6127 36.6291 23.3708C38.3873 25.129 39.375 27.5136 39.375 30ZM48.75 30C48.7557 25.3871 47.0552 20.9352 43.9758 17.5007C43.8129 17.3128 43.6142 17.1592 43.3913 17.0487C43.1684 16.9383 42.9257 16.8734 42.6775 16.8577C42.4293 16.842 42.1804 16.8758 41.9453 16.9572C41.7103 17.0386 41.4938 17.166 41.3085 17.3319C41.1231 17.4978 40.9727 17.6989 40.8658 17.9235C40.759 18.1481 40.6979 18.3918 40.6861 18.6402C40.6744 18.8887 40.7121 19.137 40.7973 19.3707C40.8824 19.6044 41.0132 19.8189 41.182 20.0015C43.6416 22.7516 45.0013 26.3117 45.0013 30.0011C45.0013 33.6906 43.6416 37.2507 41.182 40.0007C40.8597 40.3726 40.6964 40.8563 40.7275 41.3474C40.7586 41.8385 40.9816 42.2978 41.3482 42.626C41.7149 42.9542 42.1959 43.1251 42.6875 43.1018C43.1791 43.0785 43.6418 42.8629 43.9758 42.5015C47.0548 39.0659 48.7551 34.6134 48.75 30ZM18.818 20.0015C18.9868 19.8189 19.1176 19.6044 19.2027 19.3707C19.2879 19.137 19.3256 18.8887 19.3139 18.6402C19.3021 18.3918 19.241 18.1481 19.1342 17.9235C19.0273 17.6989 18.8769 17.4978 18.6915 17.3319C18.5062 17.166 18.2897 17.0386 18.0547 16.9572C17.8196 16.8758 17.5707 16.842 17.3225 16.8577C17.0743 16.8734 16.8316 16.9383 16.6087 17.0487C16.3858 17.1592 16.1872 17.3128 16.0242 17.5007C12.9464 20.937 11.2445 25.388 11.2445 30.0011C11.2445 34.6143 12.9464 39.0653 16.0242 42.5015C16.3582 42.8629 16.8209 43.0785 17.3125 43.1018C17.8041 43.1251 18.2851 42.9542 18.6518 42.626C19.0184 42.2978 19.2414 41.8385 19.2725 41.3474C19.3036 40.8563 19.1403 40.3726 18.818 40.0007C16.356 37.2519 14.9947 33.6914 14.9947 30.0011C14.9947 26.3109 16.356 22.7504 18.818 20.0015ZM55.9148 19.064C54.5426 15.8051 52.5656 12.8356 50.0883 10.3125C49.9175 10.1299 49.712 9.98333 49.4838 9.88136C49.2556 9.7794 49.0093 9.72409 48.7593 9.7187C48.5094 9.71331 48.261 9.75794 48.0286 9.84997C47.7962 9.94201 47.5845 10.0796 47.406 10.2546C47.2276 10.4296 47.0859 10.6386 46.9894 10.8691C46.8928 11.0997 46.8434 11.3473 46.8439 11.5972C46.8444 11.8472 46.8949 12.0945 46.9925 12.3247C47.09 12.5549 47.2325 12.7632 47.4117 12.9375C51.8806 17.4905 54.3843 23.6155 54.3843 29.9953C54.3843 36.375 51.8806 42.5 47.4117 47.0531C47.2387 47.2288 47.1021 47.4369 47.0095 47.6655C46.917 47.8941 46.8703 48.1386 46.8723 48.3852C46.8743 48.6318 46.9248 48.8756 47.0209 49.1026C47.1171 49.3297 47.2571 49.5356 47.4328 49.7086C47.6086 49.8815 47.8167 50.0182 48.0452 50.1108C48.2738 50.2033 48.5183 50.2499 48.7649 50.248C49.0115 50.246 49.2553 50.1955 49.4823 50.0993C49.7094 50.0032 49.9153 49.8632 50.0883 49.6875C53.9701 45.7234 56.594 40.7008 57.6306 35.2503C58.6673 29.7999 58.0704 24.1646 55.9148 19.0523V19.064ZM7.53985 39.4875C5.66635 35.0587 5.14602 30.1744 6.04445 25.4504C6.94288 20.7263 9.21985 16.374 12.5883 12.9422C12.937 12.5872 13.1304 12.1083 13.126 11.6107C13.1217 11.1132 12.9198 10.6377 12.5648 10.289C12.2099 9.94031 11.731 9.74687 11.2334 9.75127C10.7359 9.75566 10.2604 9.95753 9.91172 10.3125C4.75122 15.566 1.85977 22.6358 1.85977 30C1.85977 37.3641 4.75122 44.4339 9.91172 49.6875C10.0825 49.87 10.288 50.0166 10.5162 50.1186C10.7444 50.2205 10.9908 50.2758 11.2407 50.2812C11.4906 50.2866 11.739 50.242 11.9714 50.15C12.2038 50.0579 12.4155 49.9204 12.594 49.7453C12.7724 49.5703 12.9141 49.3614 13.0106 49.1308C13.1072 48.9002 13.1566 48.6527 13.1561 48.4027C13.1556 48.1527 13.1051 47.9054 13.0075 47.6752C12.91 47.4451 12.7675 47.2367 12.5883 47.0625C10.443 44.8783 8.73011 42.3081 7.53985 39.4875Z" fill="white"/>
</g>
</svg>
