<svg width="60" height="60" viewBox="0 0 60 60" fill="none" xmlns="http://www.w3.org/2000/svg">
<g id="Service Icons">
<path id="Vector" d="M47.0555 12.6305C42.5173 8.13654 36.3868 5.61847 30 5.62501H29.7492C23.3281 5.69108 17.1925 8.28829 12.6754 12.8523C8.15828 17.4164 5.62466 23.5786 5.625 30C5.625 40.0781 11.8547 48.5297 21.8813 52.0711C23.0121 52.4698 24.2221 52.5915 25.4098 52.4261C26.5974 52.2607 27.7281 51.8129 28.7069 51.1203C29.6858 50.4277 30.4843 49.5105 31.0356 48.4456C31.5868 47.3807 31.8747 46.1991 31.875 45C31.875 44.0055 32.2701 43.0516 32.9734 42.3484C33.6766 41.6451 34.6304 41.25 35.625 41.25H46.4555C48.1567 41.2582 49.8097 40.6844 51.1398 39.6237C52.47 38.5629 53.3974 37.0792 53.768 35.4188C54.1871 33.5735 54.3908 31.6859 54.375 29.7938C54.3511 26.5909 53.6919 23.4247 52.4354 20.4785C51.179 17.5323 49.3503 14.8648 47.0555 12.6305ZM19.6875 39.375C19.1312 39.375 18.5875 39.2101 18.125 38.901C17.6624 38.592 17.302 38.1527 17.0891 37.6388C16.8762 37.1249 16.8205 36.5594 16.929 36.0138C17.0376 35.4683 17.3054 34.9671 17.6988 34.5738C18.0921 34.1804 18.5932 33.9126 19.1388 33.8041C19.6844 33.6955 20.2499 33.7512 20.7638 33.9641C21.2777 34.177 21.717 34.5375 22.026 35C22.3351 35.4625 22.5 36.0063 22.5 36.5625C22.5 37.3084 22.2037 38.0238 21.6762 38.5513C21.1488 39.0787 20.4334 39.375 19.6875 39.375ZM19.6875 26.25C19.1312 26.25 18.5875 26.0851 18.125 25.776C17.6624 25.467 17.302 25.0277 17.0891 24.5138C16.8762 23.9999 16.8205 23.4344 16.929 22.8888C17.0376 22.3432 17.3054 21.8421 17.6988 21.4488C18.0921 21.0554 18.5932 20.7876 19.1388 20.6791C19.6844 20.5705 20.2499 20.6262 20.7638 20.8391C21.2777 21.052 21.717 21.4125 22.026 21.875C22.3351 22.3375 22.5 22.8813 22.5 23.4375C22.5 24.1834 22.2037 24.8988 21.6762 25.4263C21.1488 25.9537 20.4334 26.25 19.6875 26.25ZM30 20.625C29.4437 20.625 28.9 20.4601 28.4375 20.151C27.9749 19.842 27.6145 19.4027 27.4016 18.8888C27.1887 18.3749 27.133 17.8094 27.2415 17.2638C27.3501 16.7182 27.6179 16.2171 28.0113 15.8238C28.4046 15.4304 28.9057 15.1626 29.4513 15.0541C29.9969 14.9455 30.5624 15.0012 31.0763 15.2141C31.5902 15.427 32.0295 15.7875 32.3385 16.25C32.6475 16.7125 32.8125 17.2563 32.8125 17.8125C32.8125 18.5584 32.5162 19.2738 31.9887 19.8013C31.4613 20.3287 30.7459 20.625 30 20.625ZM40.3125 26.25C39.7562 26.25 39.2125 26.0851 38.75 25.776C38.2874 25.467 37.927 25.0277 37.7141 24.5138C37.5012 23.9999 37.4455 23.4344 37.554 22.8888C37.6626 22.3432 37.9304 21.8421 38.3238 21.4488C38.7171 21.0554 39.2182 20.7876 39.7638 20.6791C40.3094 20.5705 40.8749 20.6262 41.3888 20.8391C41.9027 21.052 42.342 21.4125 42.651 21.875C42.96 22.3375 43.125 22.8813 43.125 23.4375C43.125 24.1834 42.8287 24.8988 42.3012 25.4263C41.7738 25.9537 41.0584 26.25 40.3125 26.25Z" fill="white"/>
</g>
</svg>
